<?xml version="1.0" encoding="utf-8"?>
<!-- Generator: Adobe Illustrator 18.1.1, SVG Export Plug-In . SVG Version: 6.00 Build 0)  -->
<svg version="1.1" xmlns="http://www.w3.org/2000/svg" xmlns:xlink="http://www.w3.org/1999/xlink" x="0px" y="0px" width="40px"
	 height="40px" viewBox="0 0 40 40" enable-background="new 0 0 40 40" xml:space="preserve">
<g id="Layer_27">
</g>
<g id="Layer_26">
</g>
<g id="Layer_25">
</g>
<g id="Layer_24">
</g>
<g id="Layer_23">
</g>
<g id="Layer_21">
</g>
<g id="Layer_20">
</g>
<g id="Layer_22">
</g>
<g id="Layer_19">
</g>
<g id="Layer_18">
</g>
<g id="Layer_17">
	<path fill="#434343" d="M26,10c1.6,0,3-1.3,3-3s-1.3-3-3-3c-1.7,0-3,1.3-3,3S24.3,10,26,10z"/>
	<g>
		<path fill="#434343" d="M30.5,24c2.5,0,4.5,2,4.5,4.5S33,33,30.5,33S26,31,26,28.5S28,24,30.5,24 M30.5,21c-4.1,0-7.5,3.4-7.5,7.5
			s3.4,7.5,7.5,7.5s7.5-3.4,7.5-7.5S34.6,21,30.5,21L30.5,21z"/>
	</g>
	<path fill="#434343" d="M24.2,18H32v-3h-6l-3.2-4.6c-0.4-0.8-1.3-1.3-2.2-1.3c-0.7,0-1.3,0.3-1.8,0.8l-5.5,5.5
		c-0.5,0.5-0.8,1.1-0.8,1.8c0,0.9,0.5,1.7,1.3,2.2l4.2,3V30h4v-9.7l-3.9-2.5l3.5-3.5C21.6,14.3,24.2,18,24.2,18z"/>
	<g>
		<path fill="#434343" d="M9.5,24c2.5,0,4.5,2,4.5,4.5S12,33,9.5,33S5,31,5,28.5S7,24,9.5,24 M9.5,21C5.4,21,2,24.4,2,28.5
			S5.4,36,9.5,36s7.5-3.4,7.5-7.5S13.6,21,9.5,21L9.5,21z"/>
	</g>
</g>
<g id="Layer_16">
</g>
<g id="Layer_15">
</g>
<g id="Layer_14">
</g>
<g id="Layer_13">
</g>
<g id="Layer_12">
</g>
<g id="Layer_11">
</g>
<g id="Layer_10">
</g>
<g id="Layer_9">
</g>
<g id="Layer_8">
</g>
<g id="Layer_7">
</g>
<g id="Layer_6">
</g>
<g id="Layer_5">
</g>
<g id="Layer_4">
</g>
<g id="play">
</g>
<g id="Layer_3">
</g>
<g id="guias">
</g>
</svg>
