<?xml version="1.0" encoding="utf-8"?>
<!-- Generator: Adobe Illustrator 18.1.1, SVG Export Plug-In . SVG Version: 6.00 Build 0)  -->
<svg version="1.1" xmlns="http://www.w3.org/2000/svg" xmlns:xlink="http://www.w3.org/1999/xlink" x="0px" y="0px" width="40px"
	 height="40px" viewBox="0 0 40 40" enable-background="new 0 0 40 40" xml:space="preserve">
<g id="Layer_27">
</g>
<g id="Layer_26">
</g>
<g id="Layer_25">
</g>
<g id="Layer_24">
</g>
<g id="Layer_23">
</g>
<g id="Layer_21">
</g>
<g id="Layer_20">
</g>
<g id="Layer_22">
</g>
<g id="Layer_19">
</g>
<g id="Layer_18">
</g>
<g id="Layer_17">
</g>
<g id="Layer_16">
</g>
<g id="Layer_15">
</g>
<g id="Layer_14">
</g>
<g id="Layer_13">
</g>
<g id="Layer_12">
</g>
<g id="Layer_11">
</g>
<g id="Layer_10">
</g>
<g id="Layer_9">
</g>
<g id="Layer_8">
</g>
<g id="Layer_7">
</g>
<g id="Layer_6">
</g>
<g id="Layer_5">
</g>
<g id="Layer_4">
</g>
<g id="play">
	<g>
		<path fill-rule="evenodd" clip-rule="evenodd" fill="#434343" d="M36.5,21.3c0,0.4,0,0.7,0,1c0,7.9-7.3,14.2-16.2,14.2
			c-8.9,0-16.2-6.4-16.2-14.2c0,0,0-5.2,0-3.7c0-8.1,7.3-14.7,16.2-14.7c8.6,0,15.6,6.1,16.1,13.7C36.5,18.7,36.5,19.3,36.5,21.3z
			 M20.3,34.7c6.1,0,11.4-3.3,13.4-8c-2.9,3.9-7.9,6.5-13.4,6.5c-5.6,0-10.5-2.5-13.4-6.4C9,31.4,14.2,34.7,20.3,34.7z M34.7,18.4
			c-0.1-7.1-6.5-12.8-14.4-12.8c-8,0-14.4,5.8-14.4,12.9c0,7.1,6.5,12.9,14.4,12.9c7.9,0,14.4-5.8,14.4-12.9
			C34.7,18.5,34.7,18.5,34.7,18.4z M24.8,21.9c0,1.6-1,3-3.3,3.4V27h-0.9v0h-0.8v-1.6c-1.7-0.1-3-0.8-3.9-1.7l1.1-1.5
			c0.6,0.7,1.6,1.3,2.8,1.5v-3.3c-1.7-0.4-3.5-1.1-3.5-3.2c0-1.7,1.4-3.1,3.5-3.3v-1.7h1.3v0h0.4v1.8c1.2,0.2,2.2,0.7,3,1.5
			l-1.1,1.5c-0.5-0.5-1.2-0.9-1.9-1.1v2.9C23.2,19.1,24.8,19.8,24.8,21.9z M21.6,23.5c0.9-0.2,1.2-0.9,1.2-1.4c0-0.6-0.5-1-1.2-1.3
			V23.5z M19.9,15.6c-0.9,0.1-1.5,0.6-1.5,1.4c0,0.7,0.6,1,1.5,1.3V15.6z M20.4,9.3c-6,0-10.8,4.2-10.8,9.3c0,0.2,0,0.3,0,0.5
			c0,0.5-0.3,0.9-0.8,0.9c0,0,0,0,0,0c-0.5,0-0.9-0.4-0.9-0.8c0-0.2,0-0.4,0-0.5c0-6.1,5.6-11.1,12.6-11.1c0.5,0,0.9,0.4,0.9,0.9
			C21.3,8.9,20.9,9.3,20.4,9.3z"/>
	</g>
</g>
<g id="Layer_3">
</g>
<g id="guias">
</g>
</svg>
