<?xml version="1.0" encoding="utf-8"?>
<!-- Generator: Adobe Illustrator 18.1.1, SVG Export Plug-In . SVG Version: 6.00 Build 0)  -->
<svg version="1.1" xmlns="http://www.w3.org/2000/svg" xmlns:xlink="http://www.w3.org/1999/xlink" x="0px" y="0px" width="40px"
	 height="40px" viewBox="0 0 40 40" enable-background="new 0 0 40 40" xml:space="preserve">
<g id="Layer_27">
</g>
<g id="Layer_26">
</g>
<g id="Layer_25">
</g>
<g id="Layer_24">
</g>
<g id="Layer_23">
</g>
<g id="Layer_21">
</g>
<g id="Layer_20">
</g>
<g id="Layer_22">
</g>
<g id="Layer_19">
</g>
<g id="Layer_18">
</g>
<g id="Layer_17">
</g>
<g id="Layer_16">
</g>
<g id="Layer_15">
</g>
<g id="Layer_14">
</g>
<g id="Layer_13">
</g>
<g id="Layer_12">
	<g>
		<g>
			<path fill="#434343" d="M27.3,8.1c3.3,0,5.9,2.6,5.9,5.9c0,4.8-5.1,9.5-12.9,16.5L20,30.8l-0.3-0.3C11.9,23.5,6.8,18.8,6.8,14
				c0-3.3,2.6-5.9,5.9-5.9c1.9,0,3.8,0.9,5,2.3l2.3,2.7l2.3-2.7C23.5,9,25.4,8.1,27.3,8.1 M27.3,5.1c-2.8,0-5.5,1.3-7.3,3.4
				c-1.8-2.1-4.5-3.4-7.3-3.4c-5,0-8.9,3.9-8.9,8.9c0,6.1,5.5,11.1,13.9,18.7l2.4,2.1l2.4-2.1c8.4-7.6,13.9-12.6,13.9-18.7
				C36.2,9,32.3,5.1,27.3,5.1L27.3,5.1z"/>
		</g>
	</g>
</g>
<g id="Layer_11">
</g>
<g id="Layer_10">
</g>
<g id="Layer_9">
</g>
<g id="Layer_8">
</g>
<g id="Layer_7">
</g>
<g id="Layer_6">
</g>
<g id="Layer_5">
</g>
<g id="Layer_4">
</g>
<g id="play">
</g>
<g id="Layer_3">
</g>
<g id="guias">
</g>
</svg>
