<?xml version="1.0" encoding="utf-8"?>
<!-- Generator: Adobe Illustrator 18.1.1, SVG Export Plug-In . SVG Version: 6.00 Build 0)  -->
<svg version="1.1" xmlns="http://www.w3.org/2000/svg" xmlns:xlink="http://www.w3.org/1999/xlink" x="0px" y="0px" width="40px"
	 height="40px" viewBox="0 0 40 40" enable-background="new 0 0 40 40" xml:space="preserve">
<g id="Layer_27">
</g>
<g id="Layer_26">
</g>
<g id="Layer_25">
</g>
<g id="Layer_24">
</g>
<g id="Layer_23">
</g>
<g id="Layer_21">
</g>
<g id="Layer_20">
</g>
<g id="Layer_22">
</g>
<g id="Layer_19">
</g>
<g id="Layer_18">
</g>
<g id="Layer_17">
</g>
<g id="Layer_16">
</g>
<g id="Layer_15">
</g>
<g id="Layer_14">
</g>
<g id="Layer_13">
	<g>
		<g>
			<path fill="#434343" d="M20,11.7l2,4.6l0.7,1.7l1.8,0.2l5,0.4l-3.8,3.3l-1.4,1.2l0.4,1.8l1.1,4.9l-4.3-2.6L20,26.2l-1.6,0.9
				l-4.3,2.6l1.1-4.9l0.4-1.8l-1.4-1.2l-3.8-3.3l5-0.4l1.8-0.2l0.7-1.7L20,11.7 M20,4l-4.7,11.2l-12.1,1l9.2,8L9.6,36L20,29.7
				L30.4,36l-2.8-11.8l9.2-8l-12.1-1L20,4L20,4z"/>
		</g>
	</g>
</g>
<g id="Layer_12">
</g>
<g id="Layer_11">
</g>
<g id="Layer_10">
</g>
<g id="Layer_9">
</g>
<g id="Layer_8">
</g>
<g id="Layer_7">
</g>
<g id="Layer_6">
</g>
<g id="Layer_5">
</g>
<g id="Layer_4">
</g>
<g id="play">
</g>
<g id="Layer_3">
</g>
<g id="guias">
</g>
</svg>
