<?xml version="1.0" encoding="utf-8"?>
<!-- Generator: Adobe Illustrator 18.1.1, SVG Export Plug-In . SVG Version: 6.00 Build 0)  -->
<svg version="1.1" xmlns="http://www.w3.org/2000/svg" xmlns:xlink="http://www.w3.org/1999/xlink" x="0px" y="0px" width="40px"
	 height="40px" viewBox="0 0 40 40" enable-background="new 0 0 40 40" xml:space="preserve">
<g id="Layer_27">
</g>
<g id="Layer_26">
</g>
<g id="Layer_25">
</g>
<g id="Layer_24">
</g>
<g id="Layer_23">
</g>
<g id="Layer_21">
</g>
<g id="Layer_20">
</g>
<g id="Layer_22">
</g>
<g id="Layer_19">
</g>
<g id="Layer_18">
</g>
<g id="Layer_17">
</g>
<g id="Layer_16">
</g>
<g id="Layer_15">
</g>
<g id="Layer_14">
</g>
<g id="Layer_13">
</g>
<g id="Layer_12">
</g>
<g id="Layer_11">
</g>
<g id="Layer_10">
</g>
<g id="Layer_9">
</g>
<g id="Layer_8">
</g>
<g id="Layer_7">
</g>
<g id="Layer_6">
</g>
<g id="Layer_5">
	<g>
		<path fill="#434343" d="M20,5c2.5,0,3,1.7,3,2v3h3h6c0,0,0,0,0,0v24c0,0,0,0,0,0H8c0,0,0,0,0,0V10c0,0,0,0,0,0h6h3V7
			C17,6.7,17.5,5,20,5 M20,2c-4,0-6,3-6,5c0,0-4,0-6,0s-3,1-3,3s0,22,0,24s1,3,3,3s22,0,24,0s3-1,3-3s0-22,0-24s-1-3-3-3s-6,0-6,0
			C26,5,24,2,20,2L20,2z"/>
	</g>
	<path fill="#434343" d="M20,6.8c0.7,0,1.2,0.6,1.2,1.2S20.7,9.2,20,9.2S18.8,8.7,18.8,8S19.3,6.8,20,6.8z"/>
	<line fill="none" stroke="#434343" stroke-width="3" stroke-miterlimit="10" x1="10" y1="28.5" x2="23" y2="28.5"/>
	<line fill="none" stroke="#434343" stroke-width="3" stroke-miterlimit="10" x1="10" y1="22.5" x2="30" y2="22.5"/>
	<line fill="none" stroke="#434343" stroke-width="3" stroke-miterlimit="10" x1="10" y1="16.5" x2="30" y2="16.5"/>
</g>
<g id="Layer_4">
</g>
<g id="play">
</g>
<g id="Layer_3">
</g>
<g id="guias">
</g>
</svg>
