<?xml version="1.0" encoding="utf-8"?>
<!-- Generator: Adobe Illustrator 18.1.1, SVG Export Plug-In . SVG Version: 6.00 Build 0)  -->
<svg version="1.1" xmlns="http://www.w3.org/2000/svg" xmlns:xlink="http://www.w3.org/1999/xlink" x="0px" y="0px" width="40px"
	 height="40px" viewBox="0 0 40 40" enable-background="new 0 0 40 40" xml:space="preserve">
<g id="Layer_27">
</g>
<g id="Layer_26">
</g>
<g id="Layer_25">
</g>
<g id="Layer_24">
</g>
<g id="Layer_23">
</g>
<g id="Layer_21">
</g>
<g id="Layer_20">
	<path fill="#434343" d="M32.3,34c-2.1,0-4.3-0.4-6.1-1.7c-3.7,2.6-8.5,2.6-12.3,0C12,33.6,9.8,34,7.7,34H4.1v3h3.6
		c2.1,0,4.2-0.5,6.1-1.5c3.9,2,8.4,2,12.3,0c1.9,1,4,1.5,6.1,1.5h3.6v-3H32.3z M7.6,31.3L7.6,31.3c2.5,0,4.7-1.4,6.2-3.1
		c1.5,1.7,3.7,3.1,6.1,3.1s4.6-1.4,6.1-3.1c1.5,1.7,3.7,3.1,6.1,3.1h0.1l2.9-10.9c0.1-0.4,0.1-0.8-0.1-1.2c-0.2-0.4-0.5-0.6-0.9-0.8
		L32,17.9v-7.8C32,9,31.3,8,30.2,8H26V3.1H14V8H9.8C8.7,8,8,9.2,8,10.3v7.8l-2.3,0.4c-0.4,0.1-0.7,0.4-0.9,0.8s-0.2,0.8-0.1,1.2
		C4.7,20.5,7.6,31.3,7.6,31.3z M11,11h18v6l-9-3.1L11,17V11z"/>
</g>
<g id="Layer_22">
</g>
<g id="Layer_19">
</g>
<g id="Layer_18">
</g>
<g id="Layer_17">
</g>
<g id="Layer_16">
</g>
<g id="Layer_15">
</g>
<g id="Layer_14">
</g>
<g id="Layer_13">
</g>
<g id="Layer_12">
</g>
<g id="Layer_11">
</g>
<g id="Layer_10">
</g>
<g id="Layer_9">
</g>
<g id="Layer_8">
</g>
<g id="Layer_7">
</g>
<g id="Layer_6">
</g>
<g id="Layer_5">
</g>
<g id="Layer_4">
</g>
<g id="play">
</g>
<g id="Layer_3">
</g>
<g id="guias">
</g>
</svg>
