<?xml version="1.0" encoding="utf-8"?>
<!-- Generator: Adobe Illustrator 18.1.1, SVG Export Plug-In . SVG Version: 6.00 Build 0)  -->
<svg version="1.1" xmlns="http://www.w3.org/2000/svg" xmlns:xlink="http://www.w3.org/1999/xlink" x="0px" y="0px" width="40px"
	 height="40px" viewBox="0 0 40 40" enable-background="new 0 0 40 40" xml:space="preserve">
<g id="Layer_27">
</g>
<g id="Layer_26">
	<g>
		<path fill="#434343" d="M13,9c2.3,0,4.3,0.7,6.6,1.5l0.1,0c0.5,0.2,1.1,0.4,1.6,0.6C23.6,12,26.2,13,29,13c2.2,0,4.3-0.4,6-0.8V23
			c-1.5,0.5-3.8,1.1-6.2,1.1c-2.7,0-5.1-0.8-7.6-1.7c-0.6-0.2-1.2-0.5-1.9-0.7C17.5,20.8,15.4,20,13,20c-2.3,0-5.4,0.9-7.9,1.7V11
			C7.4,10.2,10.9,9,13,9 M13,6C8.9,6,2.1,9,2.1,9v17c0,0,7.2-3,10.9-3c2.6,0,4.7,1.3,7.2,2.2c2.6,0.9,5.4,1.9,8.6,1.9
			c5,0,9.2-2,9.2-2V8c0,0-4.2,2-9,2c-2.9,0-5.8-1.4-8.3-2.3C18.2,6.8,15.8,6,13,6L13,6z"/>
	</g>
	<g>
		<path fill="#434343" d="M13,17c2.3,0,4.3,0.7,6.6,1.5l0.1,0c0.5,0.2,1.1,0.4,1.6,0.6C23.6,20,26.2,21,29,21c2.2,0,4.3-0.4,6-0.8
			V30c-1.5,0.5-3.8,1.1-6.2,1.1c-2.7,0-5.1-0.8-7.6-1.7c-0.6-0.2-1.2-0.5-1.9-0.7C17.5,27.8,15.4,27,13,27c-2.3,0-5.4,0.9-7.9,1.7
			V19C7.4,18.2,10.9,17,13,17 M13,14c-4.1,0-10.9,3-10.9,3v16c0,0,7.2-3,10.9-3c2.6,0,4.7,1.3,7.2,2.2c2.6,0.9,5.4,1.9,8.6,1.9
			c5,0,9.2-2,9.2-2V16c0,0-4.2,2-9,2c-2.9,0-5.8-1.4-8.3-2.3C18.2,14.8,15.8,14,13,14L13,14z"/>
	</g>
</g>
<g id="Layer_25">
</g>
<g id="Layer_24">
</g>
<g id="Layer_23">
</g>
<g id="Layer_21">
</g>
<g id="Layer_20">
</g>
<g id="Layer_22">
</g>
<g id="Layer_19">
</g>
<g id="Layer_18">
</g>
<g id="Layer_17">
</g>
<g id="Layer_16">
</g>
<g id="Layer_15">
</g>
<g id="Layer_14">
</g>
<g id="Layer_13">
</g>
<g id="Layer_12">
</g>
<g id="Layer_11">
</g>
<g id="Layer_10">
</g>
<g id="Layer_9">
</g>
<g id="Layer_8">
</g>
<g id="Layer_7">
</g>
<g id="Layer_6">
</g>
<g id="Layer_5">
</g>
<g id="Layer_4">
</g>
<g id="play">
</g>
<g id="Layer_3">
</g>
<g id="guias">
</g>
</svg>
