<?xml version="1.0" encoding="utf-8"?>
<!-- Generator: Adobe Illustrator 18.1.1, SVG Export Plug-In . SVG Version: 6.00 Build 0)  -->
<svg version="1.1" xmlns="http://www.w3.org/2000/svg" xmlns:xlink="http://www.w3.org/1999/xlink" x="0px" y="0px" width="40px"
	 height="40px" viewBox="0 0 40 40" enable-background="new 0 0 40 40" xml:space="preserve">
<g id="Layer_27">
</g>
<g id="Layer_26">
</g>
<g id="Layer_25">
</g>
<g id="Layer_24">
</g>
<g id="Layer_23">
</g>
<g id="Layer_21">
</g>
<g id="Layer_20">
</g>
<g id="Layer_22">
</g>
<g id="Layer_19">
</g>
<g id="Layer_18">
	<path fill="#434343" d="M6,30c0,1.6,1,2,2,2v3c0,1,0,2,2,2s2-1,2-2v-1h16v1c0,1,0,2,2,2s2-0.8,2-1.8V32c1,0,2-0.4,2-2V9
		c0-6-6.1-6-14-6S6,3,6,9C6,9,6,30,6,30z M12,30c-1.7,0-3-1.3-3-3s1.3-3,3-3s3,1.3,3,3S13.7,30,12,30z M28.1,30c-1.7,0-3-1.3-3-3
		s1.3-3,3-3s3,1.3,3,3S29.7,30,28.1,30z M31,19H9v-9h22V19z"/>
</g>
<g id="Layer_17">
</g>
<g id="Layer_16">
</g>
<g id="Layer_15">
</g>
<g id="Layer_14">
</g>
<g id="Layer_13">
</g>
<g id="Layer_12">
</g>
<g id="Layer_11">
</g>
<g id="Layer_10">
</g>
<g id="Layer_9">
</g>
<g id="Layer_8">
</g>
<g id="Layer_7">
</g>
<g id="Layer_6">
</g>
<g id="Layer_5">
</g>
<g id="Layer_4">
</g>
<g id="play">
</g>
<g id="Layer_3">
</g>
<g id="guias">
</g>
</svg>
