<?xml version="1.0" encoding="utf-8"?>
<!-- Generator: Adobe Illustrator 16.0.0, SVG Export Plug-In . SVG Version: 6.00 Build 0)  -->
<!DOCTYPE svg PUBLIC "-//W3C//DTD SVG 1.1//EN" "http://www.w3.org/Graphics/SVG/1.1/DTD/svg11.dtd">
<svg version="1.1" id="Layer_1" xmlns="http://www.w3.org/2000/svg" xmlns:xlink="http://www.w3.org/1999/xlink" x="0px" y="0px"
	 width="63.756px" height="35.701px" viewBox="0 0 63.756 35.701" enable-background="new 0 0 63.756 35.701" xml:space="preserve">
<g>
	<g>
		<path fill="#616161" d="M36.338,32.513v0.641c0,0.351-0.281,0.632-0.64,0.632h-7.65c-0.353,0-0.632-0.281-0.632-0.632v-0.641H0
			v1.272c0,0,0,1.916,1.915,1.916h59.923c1.918,0,1.918-1.916,1.918-1.916v-1.272H36.338z"/>
		<path fill="#616161" d="M54.193,0H9.562C8.512,0,7.646,0.855,7.646,1.914v0.632v26.146c0,1.051,0.866,1.906,1.917,1.906h0.635
			h43.355h0.641c1.05,0,1.908-0.855,1.908-1.906V2.546V1.914C56.102,0.855,55.243,0,54.193,0z M53.553,28.051H10.197V2.546h43.355
			V28.051z"/>
	</g>
	<polyline fill="none" stroke="#616161" stroke-miterlimit="10" points="23.515,9.802 30.657,19.737 36.568,22.228 40.919,16.321 	
		"/>
	<path fill="#616161" d="M29.731,17.406c0.94,0,1.713,0.769,1.713,1.713s-0.772,1.709-1.713,1.709c-0.946,0-1.71-0.765-1.71-1.709
		S28.785,17.406,29.731,17.406z"/>
	<path fill="#616161" d="M36.41,20.36c0.936,0,1.698,0.771,1.698,1.708c0,0.942-0.763,1.705-1.698,1.705
		c-0.942,0-1.707-0.763-1.707-1.705C34.703,21.132,35.468,20.36,36.41,20.36z"/>
	<path fill="#616161" d="M41.065,14.771c0.942,0,1.704,0.764,1.704,1.706c0,0.944-0.762,1.714-1.704,1.714
		c-0.943,0-1.708-0.77-1.708-1.714C39.357,15.535,40.122,14.771,41.065,14.771z"/>
	<path fill="#616161" d="M23.67,8.09c0.953,0,1.717,0.773,1.717,1.712c0,0.945-0.764,1.708-1.717,1.708
		c-0.945,0-1.707-0.763-1.707-1.708C21.963,8.863,22.725,8.09,23.67,8.09z"/>
	<polyline fill="none" stroke="#616161" stroke-miterlimit="10" points="23.827,22.533 29.27,11.051 35.934,14.771 40.919,6.389 	
		"/>
	<path fill="#616161" d="M29.731,8.721c0.94,0,1.713,0.763,1.713,1.704c0,0.938-0.772,1.701-1.713,1.701
		c-0.946,0-1.71-0.764-1.71-1.701C28.021,9.483,28.785,8.721,29.731,8.721z"/>
	<path fill="#616161" d="M23.98,20.828c0.945,0,1.71,0.763,1.71,1.705c0,0.947-0.765,1.71-1.71,1.71
		c-0.932,0-1.697-0.763-1.697-1.71C22.283,21.591,23.049,20.828,23.98,20.828z"/>
	<circle fill="#616161" cx="41.065" cy="6.542" r="1.708"/>
	<path fill="#616161" d="M35.781,12.912c0.949,0,1.714,0.764,1.714,1.704c0,0.941-0.765,1.705-1.714,1.705
		c-0.938,0-1.703-0.764-1.703-1.705C34.078,13.676,34.843,12.912,35.781,12.912z"/>
</g>
<g>
	<g>
		<path fill="#283593" d="M36.338-7.179v0.641c0,0.351-0.281,0.632-0.64,0.632h-7.65c-0.353,0-0.632-0.281-0.632-0.632v-0.641H0
			v1.272c0,0,0,1.916,1.915,1.916h59.923c1.918,0,1.918-1.916,1.918-1.916v-1.272H36.338z"/>
		<path fill="#283593" d="M54.193-39.692H9.562c-1.051,0-1.917,0.855-1.917,1.914v0.632V-11c0,1.051,0.866,1.906,1.917,1.906h0.635
			h43.355h0.641c1.05,0,1.908-0.855,1.908-1.906v-26.146v-0.632C56.102-38.836,55.243-39.692,54.193-39.692z M53.553-11.641H10.197
			v-25.505h43.355V-11.641z"/>
	</g>
	<polyline fill="none" stroke="#283593" stroke-miterlimit="10" points="23.515,-29.89 30.657,-19.955 36.568,-17.464 
		40.919,-23.371 	"/>
	<path fill="#283593" d="M29.731-22.286c0.94,0,1.713,0.769,1.713,1.713s-0.772,1.709-1.713,1.709c-0.946,0-1.71-0.765-1.71-1.709
		S28.785-22.286,29.731-22.286z"/>
	<path fill="#283593" d="M36.41-19.332c0.936,0,1.698,0.771,1.698,1.708c0,0.942-0.763,1.705-1.698,1.705
		c-0.942,0-1.707-0.763-1.707-1.705C34.703-18.56,35.468-19.332,36.41-19.332z"/>
	<path fill="#283593" d="M41.065-24.92c0.942,0,1.704,0.764,1.704,1.706c0,0.944-0.762,1.714-1.704,1.714
		c-0.943,0-1.708-0.77-1.708-1.714C39.357-24.157,40.122-24.92,41.065-24.92z"/>
	<path fill="#283593" d="M23.67-31.602c0.953,0,1.717,0.773,1.717,1.712c0,0.945-0.764,1.708-1.717,1.708
		c-0.945,0-1.707-0.763-1.707-1.708C21.963-30.829,22.725-31.602,23.67-31.602z"/>
	<polyline fill="none" stroke="#283593" stroke-miterlimit="10" points="23.827,-17.159 29.27,-28.641 35.934,-24.92 
		40.919,-33.303 	"/>
	<path fill="#283593" d="M29.731-30.971c0.94,0,1.713,0.763,1.713,1.704c0,0.938-0.772,1.701-1.713,1.701
		c-0.946,0-1.71-0.764-1.71-1.701C28.021-30.208,28.785-30.971,29.731-30.971z"/>
	<path fill="#283593" d="M23.98-18.864c0.945,0,1.71,0.763,1.71,1.705c0,0.947-0.765,1.71-1.71,1.71
		c-0.932,0-1.697-0.763-1.697-1.71C22.283-18.101,23.049-18.864,23.98-18.864z"/>
	<circle fill="#283593" cx="41.065" cy="-33.149" r="1.708"/>
	<path fill="#283593" d="M35.781-26.78c0.949,0,1.714,0.764,1.714,1.704c0,0.941-0.765,1.705-1.714,1.705
		c-0.938,0-1.703-0.764-1.703-1.705C34.078-26.016,34.843-26.78,35.781-26.78z"/>
</g>
<g>
	<path fill="#1A237E" d="M123.67-8.428v-36.591h58.549v36.591H123.67z M179.777-10.868v-31.711h-53.668v31.711H179.777z
		 M128.551-49.897h48.789v2.438h-48.789V-49.897z M133.43-54.776h39.029v2.44H133.43V-54.776z M146.418-18.176l-8.107-8.545
		l8.107-8.551l1.666,1.717l-6.451,6.834l0,0l6.451,6.834L146.418-18.176z M159.469-35.27l8.111,8.549l-8.111,8.545l-1.67-1.711
		l6.455-6.834l0,0l-6.455-6.834L159.469-35.27z"/>
</g>
<g>
	<path fill="#1A237E" d="M123.67-8.428v-36.591h58.549v36.591H123.67z M179.777-10.868v-31.711h-53.668v31.711H179.777z
		 M128.551-49.897h48.789v2.438h-48.789V-49.897z M133.43-54.776h39.029v2.44H133.43V-54.776z M146.418-18.176l-8.107-8.545
		l8.107-8.551l1.666,1.717l-6.451,6.834l0,0l6.451,6.834L146.418-18.176z M159.469-35.27l8.111,8.549l-8.111,8.545l-1.67-1.711
		l6.455-6.834l0,0l-6.455-6.834L159.469-35.27z"/>
</g>
<g>
	<polygon fill="#1A237E" points="290.418,-11.857 225.58,-11.857 225.58,-23.526 228.174,-23.526 228.174,-14.451 287.82,-14.451 
		287.82,-23.526 290.418,-23.526 	"/>
	<polygon fill="#1A237E" points="248.541,-41.838 258,-32.382 267.456,-41.838 269.291,-40.003 258,-28.714 246.707,-40.003 	"/>
	<rect x="256.703" y="-57.857" fill="#1A237E" width="2.592" height="27.311"/>
</g>
</svg>
