<?xml version="1.0" encoding="utf-8"?>
<!-- Generator: Adobe Illustrator 18.1.1, SVG Export Plug-In . SVG Version: 6.00 Build 0)  -->
<svg version="1.1" xmlns="http://www.w3.org/2000/svg" xmlns:xlink="http://www.w3.org/1999/xlink" x="0px" y="0px" width="40px"
	 height="40px" viewBox="0 0 40 40" enable-background="new 0 0 40 40" xml:space="preserve">
<g id="Layer_27">
	<path fill="#434343" d="M15,29c-1.7,0-3,1.3-3,2.9c0,1.6,1.3,3,2.9,3.1c1.7,0,3-1.3,3.1-2.9C18,30.4,16.7,29,15,29z"/>
	<path fill="#434343" d="M27.9,29c-1.7,0-3,1.4-2.9,3.1c0,1.6,1.4,3,3,2.9c1.7,0,3-1.4,3-3.1S29.6,29,27.9,29z"/>
	<path fill="#434343" d="M14.9,24.6L16,22h11c1.1,0,2-0.6,2.5-1.5l5.4-10l-2.5-1.4h0L30.8,12l-4,7.2H16.8L10.7,6H6v3h2.9L14,20.1
		l-1.9,3.5c-0.2,0.4-0.4,0.9-0.4,1.4c0,1.6,1.3,3,2.9,3H32v-3H15.2C15,25,14.9,24.8,14.9,24.6z"/>
</g>
<g id="Layer_26">
</g>
<g id="Layer_25">
</g>
<g id="Layer_24">
</g>
<g id="Layer_23">
</g>
<g id="Layer_21">
</g>
<g id="Layer_20">
</g>
<g id="Layer_22">
</g>
<g id="Layer_19">
</g>
<g id="Layer_18">
</g>
<g id="Layer_17">
</g>
<g id="Layer_16">
</g>
<g id="Layer_15">
</g>
<g id="Layer_14">
</g>
<g id="Layer_13">
</g>
<g id="Layer_12">
</g>
<g id="Layer_11">
</g>
<g id="Layer_10">
</g>
<g id="Layer_9">
</g>
<g id="Layer_8">
</g>
<g id="Layer_7">
</g>
<g id="Layer_6">
</g>
<g id="Layer_5">
</g>
<g id="Layer_4">
</g>
<g id="play">
</g>
<g id="Layer_3">
</g>
<g id="guias">
</g>
</svg>
