<?xml version="1.0" encoding="utf-8"?>
<!-- Generator: Adobe Illustrator 18.1.1, SVG Export Plug-In . SVG Version: 6.00 Build 0)  -->
<svg version="1.1" xmlns="http://www.w3.org/2000/svg" xmlns:xlink="http://www.w3.org/1999/xlink" x="0px" y="0px" width="40px"
	 height="40px" viewBox="0 0 40 40" enable-background="new 0 0 40 40" xml:space="preserve">
<g id="Layer_27">
</g>
<g id="Layer_26">
</g>
<g id="Layer_25">
</g>
<g id="Layer_24">
</g>
<g id="Layer_23">
</g>
<g id="Layer_21">
</g>
<g id="Layer_20">
</g>
<g id="Layer_22">
</g>
<g id="Layer_19">
</g>
<g id="Layer_18">
</g>
<g id="Layer_17">
</g>
<g id="Layer_16">
</g>
<g id="Layer_15">
</g>
<g id="Layer_14">
</g>
<g id="Layer_13">
</g>
<g id="Layer_12">
</g>
<g id="Layer_11">
</g>
<g id="Layer_10">
</g>
<g id="Layer_9">
</g>
<g id="Layer_8">
</g>
<g id="Layer_7">
</g>
<g id="Layer_6">
</g>
<g id="Layer_5">
</g>
<g id="Layer_4">
</g>
<g id="play">
</g>
<g id="Layer_3">
	<path fill-rule="evenodd" clip-rule="evenodd" fill="#434343" d="M34,16l-3-1v17h-5c0,0,0-9.6,0-10s-0.6-1-1-1H15c-0.4,0-1,0.6-1,1
		v10H9V15l-3,1c0,0,0,16,0,17s1,2,2,2s9,0,9,0V24h6v11c0,0,8,0,9,0s2-1,2-2S34,16,34,16z"/>
	<polyline fill-rule="evenodd" clip-rule="evenodd" fill="none" stroke="#434343" stroke-width="3" stroke-miterlimit="10" points="
		3,19 20,5 37,19 	"/>
</g>
<g id="guias">
</g>
</svg>
