<?xml version="1.0" encoding="utf-8"?>
<!-- Generator: Adobe Illustrator 18.1.1, SVG Export Plug-In . SVG Version: 6.00 Build 0)  -->
<svg version="1.1" xmlns="http://www.w3.org/2000/svg" xmlns:xlink="http://www.w3.org/1999/xlink" x="0px" y="0px" width="40px"
	 height="40px" viewBox="0 0 40 40" enable-background="new 0 0 40 40" xml:space="preserve">
<g id="Layer_27">
</g>
<g id="Layer_26">
</g>
<g id="Layer_25">
</g>
<g id="Layer_24">
</g>
<g id="Layer_23">
</g>
<g id="Layer_21">
</g>
<g id="Layer_20">
</g>
<g id="Layer_22">
	<path fill="#434343" d="M20,3C12.1,3,6,3.7,6,9.9V28c0,3.5,2.5,5,5.9,5L9,36v1h22v-1l-2.9-3c3.5,0,5.9-1.5,5.9-5V10.2
		C34,3.9,27.9,3,20,3z M11.9,30c-1.7,0-3-1.3-3-3s1.3-3,3-3s3,1.3,3,3S13.6,30,11.9,30z M18.2,19.1H9L8.8,10H18L18.2,19.1z M28,30
		c-1.7,0-3-1.3-3-3s1.3-3,3-3s3,1.3,3,3S29.7,30,28,30z M31,19.1h-9.2V10H31V19.1z"/>
</g>
<g id="Layer_19">
</g>
<g id="Layer_18">
</g>
<g id="Layer_17">
</g>
<g id="Layer_16">
</g>
<g id="Layer_15">
</g>
<g id="Layer_14">
</g>
<g id="Layer_13">
</g>
<g id="Layer_12">
</g>
<g id="Layer_11">
</g>
<g id="Layer_10">
</g>
<g id="Layer_9">
</g>
<g id="Layer_8">
</g>
<g id="Layer_7">
</g>
<g id="Layer_6">
</g>
<g id="Layer_5">
</g>
<g id="Layer_4">
</g>
<g id="play">
</g>
<g id="Layer_3">
</g>
<g id="guias">
</g>
</svg>
