<?xml version="1.0" encoding="utf-8"?>
<!-- Generator: Adobe Illustrator 18.1.1, SVG Export Plug-In . SVG Version: 6.00 Build 0)  -->
<svg version="1.1" xmlns="http://www.w3.org/2000/svg" xmlns:xlink="http://www.w3.org/1999/xlink" x="0px" y="0px" width="40px"
	 height="40px" viewBox="0 0 40 40" enable-background="new 0 0 40 40" xml:space="preserve">
<g id="Layer_27">
</g>
<g id="Layer_26">
</g>
<g id="Layer_25">
</g>
<g id="Layer_24">
</g>
<g id="Layer_23">
</g>
<g id="Layer_21">
</g>
<g id="Layer_20">
</g>
<g id="Layer_22">
</g>
<g id="Layer_19">
	<path fill="#434343" d="M32.3,7.8c-0.4-1-1.4-1.8-2.5-1.8H10.2C9.1,6,8.1,6.7,7.7,7.8L4,18v15c0,1,1,2,2,2h1c1,0,2-1,2-2v-2.1h22
		V33c0,1,1,2,2,2h1c1,0,2-1,2-2V18L32.3,7.8z M11,26c-1.7,0-3-1.3-3-3s1.3-3,3-3s3,1.3,3,3S12.7,26,11,26z M29,26c-1.7,0-3-1.3-3-3
		s1.3-3,3-3s3,1.3,3,3S30.7,26,29,26z M8,17l2-8l19.1-0.1L32,17H8z"/>
</g>
<g id="Layer_18">
</g>
<g id="Layer_17">
</g>
<g id="Layer_16">
</g>
<g id="Layer_15">
</g>
<g id="Layer_14">
</g>
<g id="Layer_13">
</g>
<g id="Layer_12">
</g>
<g id="Layer_11">
</g>
<g id="Layer_10">
</g>
<g id="Layer_9">
</g>
<g id="Layer_8">
</g>
<g id="Layer_7">
</g>
<g id="Layer_6">
</g>
<g id="Layer_5">
</g>
<g id="Layer_4">
</g>
<g id="play">
</g>
<g id="Layer_3">
</g>
<g id="guias">
</g>
</svg>
