<?xml version="1.0" encoding="utf-8"?>
<!-- Generator: Adobe Illustrator 18.1.1, SVG Export Plug-In . SVG Version: 6.00 Build 0)  -->
<svg version="1.1" xmlns="http://www.w3.org/2000/svg" xmlns:xlink="http://www.w3.org/1999/xlink" x="0px" y="0px" width="40px"
	 height="40px" viewBox="0 0 40 40" enable-background="new 0 0 40 40" xml:space="preserve">
<g id="Layer_27">
</g>
<g id="Layer_26">
</g>
<g id="Layer_25">
</g>
<g id="Layer_24">
</g>
<g id="Layer_23">
</g>
<g id="Layer_21">
</g>
<g id="Layer_20">
</g>
<g id="Layer_22">
</g>
<g id="Layer_19">
</g>
<g id="Layer_18">
</g>
<g id="Layer_17">
</g>
<g id="Layer_16">
</g>
<g id="Layer_15">
</g>
<g id="Layer_14">
</g>
<g id="Layer_13">
</g>
<g id="Layer_12">
</g>
<g id="Layer_11">
</g>
<g id="Layer_10">
</g>
<g id="Layer_9">
</g>
<g id="Layer_8">
</g>
<g id="Layer_7">
	<g>
		<path fill="#434343" d="M35.3,20.8C35,21.4,34.5,22,33.9,22H27v10c0,0.8-0.7,2-1.5,2h-11c-0.8,0-1.5-1.2-1.5-2V22H6.1
			c-0.6,0-1.1-0.6-1.4-1.2c-0.2-0.6-0.1-1.3,0.3-1.8L18.9,4.5C19.2,4.2,19.6,4,20,4c0.4,0,0.8,0.2,1.1,0.4L35,19
			c0.3,0.3,0.4,0.8,0.4,1.2C35.4,20.3,35.4,20.6,35.3,20.8z M9.6,19H16v12h8V19h6.4L20,8.2L9.6,19z"/>
	</g>
</g>
<g id="Layer_6">
</g>
<g id="Layer_5">
</g>
<g id="Layer_4">
</g>
<g id="play">
</g>
<g id="Layer_3">
</g>
<g id="guias">
</g>
</svg>
