<?xml version="1.0" encoding="utf-8"?>
<!-- Generator: Adobe Illustrator 18.1.1, SVG Export Plug-In . SVG Version: 6.00 Build 0)  -->
<svg version="1.1" xmlns="http://www.w3.org/2000/svg" xmlns:xlink="http://www.w3.org/1999/xlink" x="0px" y="0px" width="40px"
	 height="40px" viewBox="0 0 40 40" enable-background="new 0 0 40 40" xml:space="preserve">
<g id="Layer_27">
</g>
<g id="Layer_26">
</g>
<g id="Layer_25">
</g>
<g id="Layer_24">
</g>
<g id="Layer_23">
</g>
<g id="Layer_21">
</g>
<g id="Layer_20">
</g>
<g id="Layer_22">
</g>
<g id="Layer_19">
</g>
<g id="Layer_18">
</g>
<g id="Layer_17">
</g>
<g id="Layer_16">
</g>
<g id="Layer_15">
</g>
<g id="Layer_14">
</g>
<g id="Layer_13">
</g>
<g id="Layer_12">
</g>
<g id="Layer_11">
</g>
<g id="Layer_10">
</g>
<g id="Layer_9">
</g>
<g id="Layer_8">
</g>
<g id="Layer_7">
	<g>
		<path fill="#434343" d="M4.7,19.3C4.9,18.8,5.5,18,6.1,18H13V8.3C13,7.5,13.7,6,14.5,6h11C26.3,6,27,7.5,27,8.3V18h6.9
			c0.6,0,1.1,0.8,1.4,1.3c0.2,0.6,0.1,1.4-0.3,1.8L21.1,35.7c-0.3,0.3-0.7,0.5-1.1,0.5s-0.8-0.1-1.1-0.4L5,21.3
			c-0.3-0.3-0.4-0.9-0.4-1.2C4.6,19.9,4.6,19.5,4.7,19.3z M30.4,21H24V9h-8v12H9.6L20,31.8L30.4,21z"/>
	</g>
</g>
<g id="Layer_6">
</g>
<g id="Layer_5">
</g>
<g id="Layer_4">
</g>
<g id="play">
</g>
<g id="Layer_3">
</g>
<g id="guias">
</g>
</svg>
