<?xml version="1.0" encoding="utf-8"?>
<!-- Generator: Adobe Illustrator 18.1.1, SVG Export Plug-In . SVG Version: 6.00 Build 0)  -->
<svg version="1.1" xmlns="http://www.w3.org/2000/svg" xmlns:xlink="http://www.w3.org/1999/xlink" x="0px" y="0px" width="40px"
	 height="40px" viewBox="0 0 40 40" enable-background="new 0 0 40 40" xml:space="preserve">
<g id="Layer_27">
</g>
<g id="Layer_26">
</g>
<g id="Layer_25">
</g>
<g id="Layer_24">
</g>
<g id="Layer_23">
</g>
<g id="Layer_21">
</g>
<g id="Layer_20">
</g>
<g id="Layer_22">
</g>
<g id="Layer_19">
</g>
<g id="Layer_18">
</g>
<g id="Layer_17">
</g>
<g id="Layer_16">
</g>
<g id="Layer_15">
</g>
<g id="Layer_14">
</g>
<g id="Layer_13">
</g>
<g id="Layer_12">
</g>
<g id="Layer_11">
</g>
<g id="Layer_10">
</g>
<g id="Layer_9">
</g>
<g id="Layer_8">
</g>
<g id="Layer_7">
</g>
<g id="Layer_6">
	<g>
		<path fill="#434343" d="M19.2,35.3c-0.6-0.2-1.2-0.8-1.2-1.4V27H8c-0.8,0-2-0.7-2-1.5v-11C6,13.7,7.2,13,8,13h10V6.1
			c0-0.6,0.6-1.1,1.2-1.4c0.6-0.2,1.3-0.1,1.8,0.3l14.6,13.9c0.3,0.3,0.5,0.7,0.5,1.1s-0.2,0.8-0.4,1.1L21,35
			c-0.3,0.3-0.8,0.4-1.2,0.4C19.7,35.4,19.4,35.4,19.2,35.3z M21,9.6V16H9v8h12v6.4L31.8,20L21,9.6z"/>
	</g>
</g>
<g id="Layer_5">
</g>
<g id="Layer_4">
</g>
<g id="play">
</g>
<g id="Layer_3">
</g>
<g id="guias">
</g>
</svg>
