<?xml version="1.0" encoding="utf-8"?>
<!-- Generator: Adobe Illustrator 18.1.1, SVG Export Plug-In . SVG Version: 6.00 Build 0)  -->
<svg version="1.1" id="Layer_1" xmlns="http://www.w3.org/2000/svg" xmlns:xlink="http://www.w3.org/1999/xlink" x="0px" y="0px"
	 width="100px" height="100px" viewBox="0 0 100 100" enable-background="new 0 0 100 100" xml:space="preserve">
<g>
	<circle fill="#FFFFFF" cx="50" cy="50" r="50"/>
	<path fill="#29398D" d="M72.7,28.9c-0.3-0.6-1.1-1-2-1c-0.7,0-1.5,0.2-2.2,0.6c-1.9,1-2.8,2.2-3.4,3.1c-0.6,0.8-1,1.4-2,1.8
		c-0.6,0.3-0.9,0.2-1.5-0.2c-0.1-0.1-0.2-0.1-0.3-0.2V20.6c0-1.8,0-7.4-2.9-7.4c-0.5,0-1.1,0.2-1.7,0.6c-1.6,1.1-2,3.2-2.5,5.3
		c-0.4,1.9-0.8,3.6-2,4.3c-0.6,0.4-0.9,0.3-1.5-0.2c-0.5-0.4-1.1-0.8-2-0.8c-0.5,0-1.1,0.2-1.7,0.5c-1.7,1-2.1,3.4-2.4,5.7
		c-0.3,2.2-0.6,4.4-2,5.2C42.4,34,42.3,34,42.2,34c-0.3,0-0.7-0.4-1-0.9c-0.6-0.7-1.3-1.5-2.5-1.5c-0.5,0-1.1,0.2-1.6,0.5
		c-2.3,1.4-2.7,4.3-2.7,8.2v4.5c0,0,0,0,0,0v1.8c-0.1,0.9-0.3,1.6-1.2,2c-0.9,0.4-1.5,0.3-2.3,0c-0.5-0.2-1-0.3-1.7-0.3
		c-0.7,0-1.4,0.2-2.1,0.6c-1,0.6-1.2,1.4-1.2,1.8c0,1.3,1.2,2.6,2.1,3.1c2.4,1.4,6.2,4.2,6.7,4.5c0,0,0.1,0,0.1,0c0,0,0.1,0,0.1,0.1
		c0,0,0,0,0,0c0,0,0.1,0,0.1,0c0,0,0.1,0,0.1,0c0,0,0,0,0,0c0,0,0,0,0,0c0,0,0.1,0,0.1,0c0.1,0,0.2,0,0.3-0.1l25.4-11.5
		c0,0,0.1-0.1,0.1-0.1c0,0,0.1-0.1,0.1-0.1c0,0,0,0,0,0c0,0,0,0,0.1-0.1c0.7-0.9,9.2-12.7,11.1-15.5C73.1,30.1,73,29.3,72.7,28.9z
		 M35.9,40.3c0-3.3,0.3-5.7,2-6.8c0.3-0.2,0.6-0.3,0.8-0.3c0.4,0,0.8,0.4,1.3,1c0.5,0.6,1.2,1.4,2.3,1.4c0.4,0,0.8-0.1,1.2-0.3
		c0.1-0.1,0.3-0.2,0.4-0.2c1.8-1.3,2.1-3.8,2.4-6.1c0.3-1.9,0.5-3.9,1.6-4.5c0.8-0.5,1.2-0.4,2,0.2c0.5,0.3,1,0.7,1.8,0.7
		c0.5,0,1-0.2,1.5-0.5c1.7-1,2.2-3.2,2.7-5.3c0.4-1.7,0.8-3.5,1.9-4.3c0.4-0.3,0.6-0.3,0.8-0.3c0.5,0,1.3,1.2,1.3,5.8v23.6L53,37.6
		c-2.3-2.3-4.7-3-6.8-1.8c-0.1,0.1-0.2,0.1-0.3,0.2c-1.7,1.1-1.6,2.3-1.6,3.3c0,0.9,0,1.4-1.1,2c-0.9,0.5-1.9,0.1-3-0.3
		c-0.8-0.3-1.6-0.6-2.4-0.6c-0.6,0-1.1,0.1-1.6,0.4c-0.1,0-0.2,0.1-0.2,0.2V40.3z M36.9,56l-1,0.4l-0.7,0.3
		c-1.1-0.8-4.4-3.1-6.5-4.4c-0.6-0.4-1.3-1.2-1.3-1.7c0-0.1,0-0.2,0.4-0.4c0.5-0.3,1-0.4,1.4-0.4c0.4,0,0.8,0.1,1.2,0.3
		c0.5,0.2,1,0.3,1.7,0.3c0.6,0,1.2-0.2,1.9-0.5c0.6-0.3,1-0.6,1.3-1c0.8-1.1,0.8-2.4,0.8-3.6c0-1.5,0-2.5,1-3.1
		c0.7-0.4,1.6-0.1,2.6,0.3c0.8,0.3,1.6,0.7,2.6,0.7c0.6,0,1.2-0.2,1.8-0.5c2-1.1,2-2.5,2-3.5c0-0.9,0-1.4,1.1-2
		c1.5-0.8,3.1-0.3,4.9,1.5l7.2,7.2l-18.8,8.5L36.9,56z M71,30.2c-1.5,2.1-7,9.8-9.7,13.5v-8.9c0.3,0.2,0.7,0.3,1.2,0.3
		c0.4,0,0.8-0.1,1.3-0.3c1.4-0.6,2.1-1.5,2.7-2.3c0.6-0.8,1.3-1.7,2.9-2.6c0.5-0.3,1-0.4,1.4-0.4c0.4,0,0.5,0.1,0.5,0.1
		C71.3,29.7,71.3,29.9,71,30.2z"/>
	<g>
		<g>
			<path fill="#293990" d="M18.9,63.7c2.7,0,5.2,2,5.2,5.3c0,1.5-0.5,2.8-1.3,3.6L24,74l-1.2,1l-1.3-1.4c-0.8,0.5-1.7,0.7-2.7,0.7
				c-2.7,0-5.2-2-5.2-5.3C13.7,65.7,16.2,63.7,18.9,63.7z M18.9,72.7c0.5,0,1.1-0.1,1.5-0.3l-1.7-1.9l1.2-1l1.7,1.9
				c0.4-0.6,0.7-1.4,0.7-2.4c0-2.5-1.7-3.7-3.4-3.7c-1.7,0-3.4,1.2-3.4,3.7C15.4,71.5,17.1,72.7,18.9,72.7z"/>
			<path fill="#293990" d="M28,74.4c-1.7,0-2.7-1.2-2.7-2.8v-4.4H27v4.1c0,0.9,0.4,1.6,1.4,1.6c1,0,1.5-0.6,1.5-1.6v-4.2h1.7v5.7
				c0,0.6,0,1,0.1,1.3H30c0-0.2-0.1-0.5-0.1-0.8C29.6,74,28.8,74.4,28,74.4z"/>
			<path fill="#293990" d="M34.8,70.1l1.8-0.3c0.4-0.1,0.5-0.3,0.5-0.5c0-0.6-0.4-1.1-1.3-1.1c-0.9,0-1.4,0.6-1.4,1.3l-1.5-0.3
				c0.1-1.2,1.2-2.3,3-2.3c2.2,0,3,1.2,3,2.6V73c0,0.6,0.1,1.1,0.1,1.1h-1.6c0,0-0.1-0.3-0.1-0.9c-0.3,0.5-1,1.1-2.2,1.1
				c-1.5,0-2.4-1-2.4-2.1C32.7,71,33.6,70.3,34.8,70.1z M37.2,71.3v-0.3l-1.8,0.3c-0.5,0.1-0.9,0.4-0.9,1c0,0.5,0.4,0.9,1,0.9
				C36.4,73.1,37.2,72.6,37.2,71.3z"/>
			<path fill="#293990" d="M46.8,72.9c0,0.6,0.1,1.2,0.1,1.3h-1.6c0-0.2-0.1-0.6-0.1-0.9c-0.3,0.6-1.1,1.1-2.1,1.1
				c-2,0-3.4-1.6-3.4-3.7c0-2,1.4-3.7,3.3-3.7c1.2,0,1.8,0.6,2.1,1v-4.2h1.6V72.9z M43.3,72.9c1.1,0,1.9-0.9,1.9-2.2
				c0-1.3-0.7-2.2-1.8-2.2c-1.1,0-1.9,0.9-1.9,2.2C41.4,72,42.2,72.9,43.3,72.9z"/>
			<path fill="#293990" d="M52.2,68.8c-0.2,0-0.4,0-0.5,0c-1.3,0-1.9,0.7-1.9,2.1v3.3h-1.7v-7h1.6v1.1c0.3-0.8,1.1-1.2,2-1.2
				c0.2,0,0.4,0,0.4,0V68.8z"/>
			<path fill="#293990" d="M54,63.6c0.6,0,1.1,0.5,1.1,1.1c0,0.6-0.5,1.1-1.1,1.1c-0.6,0-1.1-0.5-1.1-1.1
				C52.9,64.1,53.4,63.6,54,63.6z M53.1,74.2v-7h1.7v7H53.1z"/>
			<path fill="#293990" d="M56.9,71.8c0,0-0.5-0.6-0.5-1.7c0-1.6,1.2-3,3-3h3c0.2,0,0.3,0.1,0.3,0.3v0.4c0,0.1-0.1,0.3-0.2,0.3
				l-0.9,0.3c0,0,0.7,0.6,0.7,1.8c0,1.5-1.1,2.8-2.9,2.8c-0.9,0-1.4-0.3-1.5-0.3c-0.1,0-0.7,0.3-0.7,0.8c0,0.4,0.3,0.7,0.8,0.7h2.3
				c1.5,0,2.7,0.8,2.7,2.3c0,1.5-1.4,2.9-3.7,2.9c-2.4,0-3.4-1.2-3.4-2.4c0-1,0.8-1.5,1-1.6v-0.1c-0.4-0.1-1.3-0.6-1.3-1.7
				C55.7,72.4,56.9,71.8,56.9,71.8z M59.3,78.1c1.1,0,2-0.5,2-1.4c0-0.3-0.2-1-1.3-1c-0.5,0-1,0-1.5,0c-0.1,0-0.9,0.3-0.9,1.1
				C57.5,77.6,58.3,78.1,59.3,78.1z M60.8,70.1c0-0.9-0.6-1.6-1.5-1.6c-0.9,0-1.5,0.7-1.5,1.6c0,0.9,0.6,1.6,1.5,1.6
				C60.2,71.7,60.8,71.1,60.8,70.1z"/>
			<path fill="#293990" d="M67.9,68.8c-0.2,0-0.4,0-0.5,0c-1.3,0-1.9,0.7-1.9,2.1v3.3h-1.7v-7h1.6v1.1c0.3-0.8,1.1-1.2,2-1.2
				c0.2,0,0.4,0,0.4,0V68.8z"/>
			<path fill="#293990" d="M70.6,70.1l1.8-0.3c0.4-0.1,0.5-0.3,0.5-0.5c0-0.6-0.4-1.1-1.3-1.1c-0.9,0-1.4,0.6-1.4,1.3l-1.5-0.3
				c0.1-1.2,1.2-2.3,3-2.3c2.2,0,3,1.2,3,2.6V73c0,0.6,0.1,1.1,0.1,1.1h-1.6c0,0-0.1-0.3-0.1-0.9c-0.3,0.5-1,1.1-2.2,1.1
				c-1.5,0-2.4-1-2.4-2.1C68.5,71,69.4,70.3,70.6,70.1z M72.9,71.3v-0.3l-1.8,0.3c-0.5,0.1-0.9,0.4-0.9,1c0,0.5,0.4,0.9,1,0.9
				C72.1,73.1,72.9,72.6,72.9,71.3z"/>
			<path fill="#293990" d="M75.8,74.2v-7h1.6V68c0.4-0.7,1.3-1.1,2.1-1.1c0.9,0,1.7,0.4,2.1,1.2c0.5-0.9,1.4-1.2,2.3-1.2
				c1.3,0,2.5,0.8,2.5,2.7v4.6h-1.6v-4.3c0-0.8-0.4-1.4-1.4-1.4c-0.9,0-1.5,0.7-1.5,1.6v4.2h-1.6v-4.3c0-0.8-0.4-1.4-1.4-1.4
				c-0.9,0-1.5,0.7-1.5,1.6v4.2H75.8z"/>
		</g>
	</g>
</g>
</svg>
