<?xml version="1.0" encoding="utf-8"?>
<!-- Generator: Adobe Illustrator 16.0.0, SVG Export Plug-In . SVG Version: 6.00 Build 0)  -->
<!DOCTYPE svg PUBLIC "-//W3C//DTD SVG 1.1//EN" "http://www.w3.org/Graphics/SVG/1.1/DTD/svg11.dtd">
<svg version="1.1" id="Layer_1" xmlns="http://www.w3.org/2000/svg" xmlns:xlink="http://www.w3.org/1999/xlink" x="0px" y="0px"
	 width="64.838px" height="46px" viewBox="0 0 64.838 46" enable-background="new 0 0 64.838 46" xml:space="preserve">
<g>
	<g>
		<path fill="#616161" d="M-203.368,101.908v0.641c0,0.351-0.281,0.632-0.64,0.632h-7.65c-0.353,0-0.632-0.281-0.632-0.632v-0.641
			h-27.416v1.272c0,0,0,1.916,1.915,1.916h59.923c1.918,0,1.918-1.916,1.918-1.916v-1.272H-203.368z"/>
		<path fill="#616161" d="M-185.512,69.395h-44.631c-1.051,0-1.917,0.855-1.917,1.914v0.632v26.146c0,1.051,0.866,1.906,1.917,1.906
			h0.635h43.355h0.641c1.05,0,1.908-0.855,1.908-1.906V71.941v-0.632C-183.604,70.25-184.462,69.395-185.512,69.395z
			 M-186.153,97.446h-43.355V71.941h43.355V97.446z"/>
	</g>
	<polyline fill="none" stroke="#616161" stroke-miterlimit="10" points="-216.191,79.197 -209.048,89.132 -203.137,91.623 
		-198.787,85.716 	"/>
	<path fill="#616161" d="M-209.974,86.801c0.94,0,1.713,0.769,1.713,1.713s-0.772,1.709-1.713,1.709c-0.946,0-1.71-0.765-1.71-1.709
		S-210.92,86.801-209.974,86.801z"/>
	<path fill="#616161" d="M-203.295,89.755c0.936,0,1.698,0.771,1.698,1.708c0,0.942-0.763,1.705-1.698,1.705
		c-0.942,0-1.707-0.763-1.707-1.705C-205.002,90.527-204.238,89.755-203.295,89.755z"/>
	<path fill="#616161" d="M-198.64,84.167c0.942,0,1.704,0.764,1.704,1.706c0,0.944-0.762,1.714-1.704,1.714
		c-0.943,0-1.708-0.77-1.708-1.714C-200.348,84.93-199.583,84.167-198.64,84.167z"/>
	<path fill="#616161" d="M-216.036,77.485c0.953,0,1.717,0.773,1.717,1.712c0,0.945-0.764,1.708-1.717,1.708
		c-0.945,0-1.707-0.763-1.707-1.708C-217.743,78.258-216.981,77.485-216.036,77.485z"/>
	<polyline fill="none" stroke="#616161" stroke-miterlimit="10" points="-215.878,91.928 -210.436,80.446 -203.772,84.167 
		-198.787,75.784 	"/>
	<path fill="#616161" d="M-209.974,78.116c0.94,0,1.713,0.763,1.713,1.704c0,0.938-0.772,1.701-1.713,1.701
		c-0.946,0-1.71-0.764-1.71-1.701C-211.684,78.878-210.92,78.116-209.974,78.116z"/>
	<path fill="#616161" d="M-215.725,90.223c0.945,0,1.71,0.763,1.71,1.705c0,0.947-0.765,1.71-1.71,1.71
		c-0.932,0-1.697-0.763-1.697-1.71C-217.422,90.986-216.657,90.223-215.725,90.223z"/>
	<circle fill="#616161" cx="-198.64" cy="75.938" r="1.708"/>
	<path fill="#616161" d="M-203.924,82.307c0.949,0,1.714,0.764,1.714,1.704c0,0.941-0.765,1.705-1.714,1.705
		c-0.938,0-1.703-0.764-1.703-1.705C-205.627,83.071-204.863,82.307-203.924,82.307z"/>
</g>
<g>
	<g>
		<path fill="#283593" d="M-189.662,50.473v0.641c0,0.351-0.281,0.632-0.64,0.632h-7.65c-0.353,0-0.632-0.281-0.632-0.632v-0.641
			H-226v1.272c0,0,0,1.916,1.915,1.916h59.923c1.918,0,1.918-1.916,1.918-1.916v-1.272H-189.662z"/>
		<path fill="#283593" d="M-171.807,17.96h-44.631c-1.051,0-1.917,0.855-1.917,1.914v0.632v26.146c0,1.051,0.866,1.906,1.917,1.906
			h0.635h43.355h0.641c1.05,0,1.908-0.855,1.908-1.906V20.506v-0.632C-169.898,18.816-170.757,17.96-171.807,17.96z
			 M-172.447,46.011h-43.355V20.506h43.355V46.011z"/>
	</g>
	<polyline fill="none" stroke="#283593" stroke-miterlimit="10" points="-202.485,27.762 -195.343,37.698 -189.432,40.188 
		-185.081,34.282 	"/>
	<path fill="#283593" d="M-196.269,35.367c0.94,0,1.713,0.769,1.713,1.713s-0.772,1.709-1.713,1.709c-0.946,0-1.71-0.765-1.71-1.709
		S-197.215,35.367-196.269,35.367z"/>
	<path fill="#283593" d="M-189.59,38.321c0.936,0,1.698,0.771,1.698,1.708c0,0.942-0.763,1.705-1.698,1.705
		c-0.942,0-1.707-0.763-1.707-1.705C-191.297,39.092-190.532,38.321-189.59,38.321z"/>
	<path fill="#283593" d="M-184.935,32.732c0.942,0,1.704,0.764,1.704,1.706c0,0.944-0.762,1.714-1.704,1.714
		c-0.943,0-1.708-0.77-1.708-1.714C-186.643,33.496-185.878,32.732-184.935,32.732z"/>
	<path fill="#283593" d="M-202.33,26.05c0.953,0,1.717,0.773,1.717,1.712c0,0.945-0.764,1.708-1.717,1.708
		c-0.945,0-1.707-0.763-1.707-1.708C-204.037,26.824-203.275,26.05-202.33,26.05z"/>
	<polyline fill="none" stroke="#283593" stroke-miterlimit="10" points="-202.173,40.494 -196.73,29.011 -190.066,32.732 
		-185.081,24.349 	"/>
	<path fill="#283593" d="M-196.269,26.681c0.94,0,1.713,0.763,1.713,1.704c0,0.938-0.772,1.701-1.713,1.701
		c-0.946,0-1.71-0.764-1.71-1.701C-197.979,27.444-197.215,26.681-196.269,26.681z"/>
	<path fill="#283593" d="M-202.02,38.789c0.945,0,1.71,0.763,1.71,1.705c0,0.947-0.765,1.71-1.71,1.71
		c-0.932,0-1.697-0.763-1.697-1.71C-203.717,39.551-202.951,38.789-202.02,38.789z"/>
	<circle fill="#283593" cx="-184.935" cy="24.503" r="1.708"/>
	<path fill="#283593" d="M-190.219,30.873c0.949,0,1.714,0.764,1.714,1.704c0,0.941-0.765,1.705-1.714,1.705
		c-0.938,0-1.703-0.764-1.703-1.705C-191.922,31.636-191.157,30.873-190.219,30.873z"/>
</g>
<g>
	<path fill="#5D5D5D" d="M-121.506,61.495V24.904h58.549v36.591H-121.506z M-65.398,59.055V27.344h-53.668v31.711H-65.398z
		 M-116.625,20.026h48.789v2.438h-48.789V20.026z M-111.746,15.147h39.029v2.44h-39.029V15.147z M-98.758,51.747l-8.107-8.545
		l8.107-8.551l1.666,1.717l-6.451,6.834l0,0l6.451,6.834L-98.758,51.747z M-85.707,34.653l8.111,8.549l-8.111,8.545l-1.67-1.711
		l6.455-6.834l0,0l-6.455-6.834L-85.707,34.653z"/>
</g>
<g>
	<path fill="#1A237E" d="M-102.756-7.848v-36.591h58.549v36.591H-102.756z M-46.648-10.287v-31.711h-53.668v31.711H-46.648z
		 M-97.875-49.316h48.789v2.438h-48.789V-49.316z M-92.996-54.195h39.029v2.44h-39.029V-54.195z M-80.008-17.596l-8.107-8.545
		l8.107-8.551l1.666,1.717l-6.451,6.834l0,0l6.451,6.834L-80.008-17.596z M-66.957-34.689l8.111,8.549l-8.111,8.545l-1.67-1.711
		l6.455-6.834l0,0l-6.455-6.834L-66.957-34.689z"/>
</g>
<g>
	<polygon fill="#1A237E" points="64.838,46 0,46 0,34.331 2.594,34.331 2.594,43.406 62.24,43.406 62.24,34.331 64.838,34.331 	"/>
	<polygon fill="#1A237E" points="22.961,16.019 32.42,25.475 41.876,16.019 43.711,17.854 32.42,29.143 21.127,17.854 	"/>
	<rect x="31.123" fill="#1A237E" width="2.592" height="27.311"/>
</g>
</svg>
