<?xml version="1.0" encoding="utf-8"?>
<!-- Generator: Adobe Illustrator 16.0.0, SVG Export Plug-In . SVG Version: 6.00 Build 0)  -->
<!DOCTYPE svg PUBLIC "-//W3C//DTD SVG 1.1//EN" "http://www.w3.org/Graphics/SVG/1.1/DTD/svg11.dtd">
<svg version="1.1" id="Layer_1" xmlns="http://www.w3.org/2000/svg" xmlns:xlink="http://www.w3.org/1999/xlink" x="0px" y="0px"
	 width="58.549px" height="46.348px" viewBox="0 0 58.549 46.348" enable-background="new 0 0 58.549 46.348" xml:space="preserve">
<g>
	<g>
		<path fill="#616161" d="M-100.612,99.603v0.641c0,0.351-0.281,0.632-0.64,0.632h-7.65c-0.353,0-0.632-0.281-0.632-0.632v-0.641
			h-27.416v1.272c0,0,0,1.916,1.915,1.916h59.923c1.918,0,1.918-1.916,1.918-1.916v-1.272H-100.612z"/>
		<path fill="#616161" d="M-82.756,67.09h-44.631c-1.051,0-1.917,0.855-1.917,1.914v0.632v26.146c0,1.051,0.866,1.906,1.917,1.906
			h0.635h43.355h0.641c1.05,0,1.908-0.855,1.908-1.906V69.636v-0.632C-80.848,67.946-81.707,67.09-82.756,67.09z M-83.397,95.141
			h-43.355V69.636h43.355V95.141z"/>
	</g>
	<polyline fill="none" stroke="#616161" stroke-miterlimit="10" points="-113.435,76.892 -106.292,86.828 -100.381,89.318 
		-96.031,83.412 	"/>
	<path fill="#616161" d="M-107.218,84.497c0.94,0,1.713,0.769,1.713,1.713s-0.772,1.709-1.713,1.709c-0.946,0-1.71-0.765-1.71-1.709
		S-108.165,84.497-107.218,84.497z"/>
	<path fill="#616161" d="M-100.54,87.451c0.936,0,1.698,0.771,1.698,1.708c0,0.942-0.763,1.705-1.698,1.705
		c-0.942,0-1.707-0.763-1.707-1.705C-102.247,88.222-101.482,87.451-100.54,87.451z"/>
	<path fill="#616161" d="M-95.884,81.862c0.942,0,1.704,0.764,1.704,1.706c0,0.944-0.762,1.714-1.704,1.714
		c-0.943,0-1.708-0.77-1.708-1.714C-97.592,82.625-96.828,81.862-95.884,81.862z"/>
	<path fill="#616161" d="M-113.28,75.18c0.953,0,1.717,0.773,1.717,1.712c0,0.945-0.764,1.708-1.717,1.708
		c-0.945,0-1.707-0.763-1.707-1.708C-114.987,75.954-114.225,75.18-113.28,75.18z"/>
	<polyline fill="none" stroke="#616161" stroke-miterlimit="10" points="-113.123,89.624 -107.68,78.141 -101.016,81.862 
		-96.031,73.479 	"/>
	<path fill="#616161" d="M-107.218,75.811c0.94,0,1.713,0.763,1.713,1.704c0,0.938-0.772,1.701-1.713,1.701
		c-0.946,0-1.71-0.764-1.71-1.701C-108.928,76.574-108.165,75.811-107.218,75.811z"/>
	<path fill="#616161" d="M-112.969,87.918c0.945,0,1.71,0.763,1.71,1.705c0,0.947-0.765,1.71-1.71,1.71
		c-0.932,0-1.697-0.763-1.697-1.71C-114.667,88.681-113.901,87.918-112.969,87.918z"/>
	<circle fill="#616161" cx="-95.884" cy="73.633" r="1.708"/>
	<path fill="#616161" d="M-101.168,80.002c0.949,0,1.714,0.764,1.714,1.704c0,0.941-0.765,1.705-1.714,1.705
		c-0.938,0-1.703-0.764-1.703-1.705C-102.872,80.766-102.107,80.002-101.168,80.002z"/>
</g>
<g>
	<g>
		<path fill="#283593" d="M-86.906,48.168v0.641c0,0.351-0.281,0.632-0.64,0.632h-7.65c-0.353,0-0.632-0.281-0.632-0.632v-0.641
			h-27.416v1.272c0,0,0,1.916,1.915,1.916h59.923c1.918,0,1.918-1.916,1.918-1.916v-1.272H-86.906z"/>
		<path fill="#283593" d="M-69.051,15.656h-44.631c-1.051,0-1.917,0.855-1.917,1.914v0.632v26.146c0,1.051,0.866,1.906,1.917,1.906
			h0.635h43.355h0.641c1.05,0,1.908-0.855,1.908-1.906V18.202V17.57C-67.143,16.511-68.001,15.656-69.051,15.656z M-69.691,43.707
			h-43.355V18.202h43.355V43.707z"/>
	</g>
	<polyline fill="none" stroke="#283593" stroke-miterlimit="10" points="-99.729,25.458 -92.587,35.393 -86.676,37.883 
		-82.325,31.977 	"/>
	<path fill="#283593" d="M-93.513,33.062c0.94,0,1.713,0.769,1.713,1.713s-0.772,1.709-1.713,1.709c-0.946,0-1.71-0.765-1.71-1.709
		S-94.459,33.062-93.513,33.062z"/>
	<path fill="#283593" d="M-86.834,36.016c0.936,0,1.698,0.771,1.698,1.708c0,0.942-0.763,1.705-1.698,1.705
		c-0.942,0-1.707-0.763-1.707-1.705C-88.541,36.788-87.776,36.016-86.834,36.016z"/>
	<path fill="#283593" d="M-82.179,30.427c0.942,0,1.704,0.764,1.704,1.706c0,0.944-0.762,1.714-1.704,1.714
		c-0.943,0-1.708-0.77-1.708-1.714C-83.887,31.191-83.122,30.427-82.179,30.427z"/>
	<path fill="#283593" d="M-99.574,23.746c0.953,0,1.717,0.773,1.717,1.712c0,0.945-0.764,1.708-1.717,1.708
		c-0.945,0-1.707-0.763-1.707-1.708C-101.281,24.519-100.52,23.746-99.574,23.746z"/>
	<polyline fill="none" stroke="#283593" stroke-miterlimit="10" points="-99.417,38.189 -93.975,26.707 -87.311,30.427 
		-82.325,22.044 	"/>
	<path fill="#283593" d="M-93.513,24.376c0.94,0,1.713,0.763,1.713,1.704c0,0.938-0.772,1.701-1.713,1.701
		c-0.946,0-1.71-0.764-1.71-1.701C-95.223,25.139-94.459,24.376-93.513,24.376z"/>
	<path fill="#283593" d="M-99.264,36.484c0.945,0,1.71,0.763,1.71,1.705c0,0.947-0.765,1.71-1.71,1.71
		c-0.932,0-1.697-0.763-1.697-1.71C-100.961,37.247-100.195,36.484-99.264,36.484z"/>
	<circle fill="#283593" cx="-82.179" cy="22.198" r="1.708"/>
	<path fill="#283593" d="M-87.463,28.568c0.949,0,1.714,0.764,1.714,1.704c0,0.941-0.765,1.705-1.714,1.705
		c-0.938,0-1.703-0.764-1.703-1.705C-89.166,29.332-88.401,28.568-87.463,28.568z"/>
</g>
<g>
	<path fill="#5D5D5D" d="M0,46.348V9.757h58.549v36.591H0z M56.107,43.908V12.197H2.439v31.711H56.107z M4.881,4.879H53.67v2.438
		H4.881V4.879z M9.76,0h39.029v2.44H9.76V0z M22.748,36.6l-8.107-8.545l8.107-8.551l1.666,1.717l-6.451,6.834l0,0l6.451,6.834
		L22.748,36.6z M35.799,19.506l8.111,8.549L35.799,36.6l-1.67-1.711l6.455-6.834l0,0l-6.455-6.834L35.799,19.506z"/>
</g>
<g>
	<path fill="#1A237E" d="M0-10.152v-36.591h58.549v36.591H0z M56.107-12.592v-31.711H2.439v31.711H56.107z M4.881-51.621H53.67
		v2.438H4.881V-51.621z M9.76-56.5h39.029v2.44H9.76V-56.5z M22.748-19.9l-8.107-8.545l8.107-8.551l1.666,1.717l-6.451,6.834l0,0
		l6.451,6.834L22.748-19.9z M35.799-36.994l8.111,8.549L35.799-19.9l-1.67-1.711l6.455-6.834l0,0l-6.455-6.834L35.799-36.994z"/>
</g>
<g>
	<polygon fill="#1A237E" points="167.174,43.491 102.336,43.491 102.336,31.822 104.93,31.822 104.93,40.897 164.576,40.897 
		164.576,31.822 167.174,31.822 	"/>
	<polygon fill="#1A237E" points="125.297,13.509 134.756,22.965 144.212,13.509 146.047,15.344 134.756,26.633 123.463,15.344 	"/>
	<rect x="133.459" y="-2.509" fill="#1A237E" width="2.592" height="27.311"/>
</g>
</svg>
