<?xml version="1.0" encoding="iso-8859-1"?>
<!-- Generator: Adobe Illustrator 16.0.0, SVG Export Plug-In . SVG Version: 6.00 Build 0)  -->
<!DOCTYPE svg PUBLIC "-//W3C//DTD SVG 1.1//EN" "http://www.w3.org/Graphics/SVG/1.1/DTD/svg11.dtd">
<svg version="1.1" id="Layer_1" xmlns="http://www.w3.org/2000/svg" xmlns:xlink="http://www.w3.org/1999/xlink" x="0px" y="0px"
	 width="349.068px" height="77.371px" viewBox="0 0 349.068 77.371" style="enable-background:new 0 0 349.068 77.371;"
	 xml:space="preserve">
<g>
	<g>
		<path style="fill:#283593;" d="M109.521,24.459c8.988,0,17.438,6.617,17.438,17.828c0,5.072-1.738,9.225-4.446,12.219l4.061,4.542
			l-3.916,3.334l-4.201-4.59c-2.656,1.545-5.798,2.367-8.936,2.367c-8.984,0-17.391-6.62-17.391-17.872
			C92.13,31.077,100.537,24.459,109.521,24.459z M109.521,54.65c1.741,0,3.527-0.337,5.12-1.111l-5.65-6.28l3.96-3.379l5.698,6.328
			c1.452-1.982,2.367-4.59,2.367-7.921c0-8.262-5.698-12.367-11.496-12.367c-5.747,0-11.448,4.105-11.448,12.367
			C98.073,50.545,103.774,54.65,109.521,54.65z"/>
		<path style="fill:#283593;" d="M141.535,60.111c-5.605,0-8.888-4.156-8.888-9.373v-14.83h5.605v13.815
			c0,2.9,1.352,5.364,4.734,5.364c3.234,0,4.924-2.175,4.924-5.265V35.908h5.605v19.228c0,1.931,0.145,3.427,0.241,4.298h-5.361
			c-0.096-0.53-0.196-1.641-0.196-2.608C147.041,58.952,144.288,60.111,141.535,60.111z"/>
		<path style="fill:#283593;" d="M165.994,45.955l6.035-0.915c1.356-0.193,1.741-0.871,1.741-1.693c0-1.979-1.352-3.575-4.446-3.575
			c-2.945,0-4.586,1.885-4.831,4.253l-5.12-1.16c0.437-4.061,4.108-7.68,9.903-7.68c7.246,0,9.999,4.105,9.999,8.792v11.689
			c0,2.126,0.244,3.527,0.289,3.768h-5.216c-0.048-0.145-0.241-1.111-0.241-2.994c-1.108,1.786-3.431,3.72-7.247,3.72
			c-4.928,0-7.969-3.382-7.969-7.102C158.892,48.856,161.981,46.537,165.994,45.955z M173.77,49.675v-1.063l-6.135,0.922
			c-1.738,0.289-3.142,1.252-3.142,3.187c0,1.593,1.211,3.042,3.431,3.042C171.065,55.762,173.77,54.265,173.77,49.675z"/>
		<path style="fill:#283593;" d="M207.553,55.135c0,2.127,0.193,3.913,0.241,4.298h-5.361c-0.096-0.53-0.24-2.075-0.24-3.042
			c-1.108,1.979-3.575,3.623-6.906,3.623c-6.765,0-11.304-5.316-11.304-12.415c0-6.765,4.591-12.319,11.204-12.319
			c4.108,0,6.187,1.882,6.909,3.379V24.459h5.457V55.135z M195.912,55.087c3.672,0,6.231-3.045,6.231-7.536
			c0-4.494-2.512-7.295-6.18-7.295c-3.675,0-6.379,2.849-6.379,7.343C189.585,52.09,192.097,55.087,195.912,55.087z"/>
		<path style="fill:#283593;" d="M228.082,41.465c-0.63-0.097-1.26-0.148-1.838-0.148c-4.35,0-6.328,2.512-6.328,6.909v11.207
			h-5.604V35.908h5.46v3.768c1.111-2.56,3.72-4.057,6.81-4.057c0.679,0,1.256,0.096,1.501,0.145V41.465z"/>
		<path style="fill:#283593;" d="M234.885,23.978c2.03,0,3.671,1.641,3.671,3.671c0,2.027-1.641,3.62-3.671,3.62
			c-1.982,0-3.624-1.593-3.624-3.62C231.261,25.619,232.902,23.978,234.885,23.978z M232.128,59.433V35.908h5.558v23.525H232.128z"
			/>
		<path style="fill:#283593;" d="M246.167,51.447c0,0-1.796-2.14-1.796-5.612c0-5.378,4.05-10.126,9.951-10.126h10.127
			c0.637,0,1.098,0.464,1.098,1.101v1.445c0,0.406-0.228,0.929-0.634,0.984l-3.186,0.867c0,0,2.491,1.851,2.491,6.194
			c0,4.917-3.819,9.432-9.838,9.432c-2.949,0-4.573-0.926-5.034-0.926c-0.406,0-2.374,0.984-2.374,2.835
			c0,1.332,1.042,2.371,2.78,2.371h7.866c5.037,0,9.087,2.722,9.087,7.756c0,5.089-4.628,9.604-12.325,9.604
			c-8.158,0-11.458-4.163-11.458-7.928c0-3.472,2.838-5.093,3.416-5.437v-0.176c-1.214-0.347-4.28-1.91-4.28-5.784
			C242.059,53.59,246.167,51.447,246.167,51.447z M254.322,72.626c3.53,0,6.597-1.793,6.597-4.573c0-0.922-0.578-3.296-4.34-3.296
			c-1.679,0-3.413,0-5.092,0.117c-0.348,0.117-3.184,1.039-3.184,3.644C248.304,70.892,250.792,72.626,254.322,72.626z
			 M259.298,45.952c0-3.125-1.965-5.323-4.858-5.323c-2.952,0-5.093,2.199-5.093,5.323s2.141,5.323,5.093,5.323
			C257.333,51.275,259.298,49.076,259.298,45.952z"/>
		<path style="fill:#283593;" d="M283.99,41.465c-0.63-0.097-1.256-0.148-1.838-0.148c-4.346,0-6.328,2.512-6.328,6.909v11.207
			h-5.604V35.908h5.46v3.768c1.112-2.56,3.72-4.057,6.81-4.057c0.679,0,1.26,0.096,1.501,0.145V41.465z"/>
		<path style="fill:#283593;" d="M294.131,45.955l6.038-0.915c1.353-0.193,1.738-0.871,1.738-1.693c0-1.979-1.353-3.575-4.442-3.575
			c-2.949,0-4.591,1.885-4.831,4.253l-5.12-1.16c0.434-4.061,4.104-7.68,9.902-7.68c7.247,0,9.996,4.105,9.996,8.792v11.689
			c0,2.126,0.244,3.527,0.293,3.768h-5.217c-0.048-0.145-0.244-1.111-0.244-2.994c-1.111,1.786-3.427,3.72-7.243,3.72
			c-4.928,0-7.973-3.382-7.973-7.102C287.028,48.856,290.122,46.537,294.131,45.955z M301.907,49.675v-1.063l-6.136,0.922
			c-1.737,0.289-3.138,1.252-3.138,3.187c0,1.593,1.204,3.042,3.427,3.042C299.202,55.762,301.907,54.265,301.907,49.675z"/>
		<path style="fill:#283593;" d="M313.758,59.433V35.908h5.36v2.997c1.353-2.416,4.298-3.672,6.958-3.672
			c3.09,0,5.794,1.401,7.051,4.153c1.837-3.093,4.59-4.153,7.632-4.153c4.253,0,8.31,2.705,8.31,8.937v15.264h-5.409V45.088
			c0-2.752-1.4-4.831-4.542-4.831c-2.945,0-4.879,2.319-4.879,5.216v13.96h-5.506V45.088c0-2.705-1.353-4.831-4.542-4.831
			c-2.994,0-4.876,2.223-4.876,5.216v13.96H313.758z"/>
	</g>
</g>
<g>
	<path style="fill:#5C6BC0;" d="M68.202,24.408c-5.492,2.932-4.7,6.097-8.83,7.866c-2.457,1.049-3.186-0.458-4.714-1.153
		c0,10.409-0.003,20.725-0.003,20.725s14.769-20.391,17.969-24.981C74.792,23.754,71.285,22.763,68.202,24.408z"/>
	<path style="fill:#5C6BC0;" d="M16.11,44.338c3.575-2.103,7.095,2.98,11.217,0.778c5.127-2.743-0.1-6.139,4.921-8.912
		c3.506-1.934,6.875,0.158,9.411,2.694l0.895,0.891c2.529-3.544,4.989-6.885,7.477-8.097c2.33-1.132,3.644-1.019,4.628-0.571
		c0-8.829,0-17.724,0-20.442c0-9.893-2.367-12.116-5.423-9.886c-4.315,3.148-2.773,12.759-7.302,15.477
		c-3.795,2.281-3.999-3.272-8.44-0.736c-4.663,2.667-1.7,14.542-7.058,17.573c-3.795,2.147-4.218-5.746-8.864-2.794
		c-3.172,2.023-3.795,6.307-3.795,12.037c0,1.651-0.003,5.756-0.003,10.33C13.994,49.695,12.955,46.192,16.11,44.338z"/>
	<path style="fill:#1A237E;" d="M50.031,31.692c-2.488,1.211-4.948,4.552-7.477,8.097l12.102,12.057c0,0,0.003-10.316,0.003-20.725
		C53.675,30.674,52.36,30.561,50.031,31.692z"/>
	<path style="fill:#5C6BC0;" d="M11.2,56.853c-4.153,2.078-5.361-1.91-9.896,0.499c-2.987,1.583-0.121,4.631,1.445,5.584
		c4.167,2.529,11.024,7.433,11.024,7.433s0-9.583,0-17.69C13.65,54.368,13.123,55.893,11.2,56.853z"/>
	<path style="fill:#303F9F;" d="M42.554,39.789l-0.895-0.891c-2.536-2.536-5.904-4.628-9.411-2.694
		c-5.021,2.773,0.207,6.169-4.921,8.912c-4.122,2.202-7.642-2.88-11.217-0.778c-3.155,1.854-2.116,5.357-2.336,8.341
		c0,8.107,0,17.69,0,17.69l40.882-18.522L42.554,39.789z"/>
</g>
</svg>
